<svg width="77" height="34" viewBox="0 0 77 34" fill="none" xmlns="http://www.w3.org/2000/svg">
<g filter="url(#filter0_f_78_2)">
<path d="M24 16C25.1046 16 26 16.2985 26 16.6667V18C26 18.3682 25.1046 18.6667 24 18.6667H20C18.9 18.6667 18 18.9667 18 19.3333V20.6667C18 21.0333 18.9 21.3333 20 21.3333H24C25.1046 21.3333 26 21.6318 26 22V23.3333C26 23.7015 25.1046 24 24 24H20C18.8954 24 18 23.7015 18 23.3333V22C18 21.6333 17.1 21.3333 16 21.3333H12C10.8954 21.3333 10 21.0349 10 20.6667V19.3333C10 18.9651 10.8954 18.6667 12 18.6667H16C17.1 18.6667 18 18.3667 18 18V16.6667C18 16.2985 18.8954 16 20 16H24Z" fill="url(#paint0_linear_78_2)" fill-opacity="0.5"/>
<path d="M32 18.6667C33.1046 18.6667 34 18.9651 34 19.3333V20.6667C34 21.0349 33.1046 21.3333 32 21.3333H28C26.8954 21.3333 26 21.0349 26 20.6667V19.3333C26 18.9651 26.8954 18.6667 28 18.6667H32Z" fill="url(#paint1_linear_78_2)" fill-opacity="0.5"/>
</g>
<g filter="url(#filter1_f_78_2)">
<ellipse cx="22" cy="24" rx="12" ry="3" fill="url(#paint2_radial_78_2)"/>
</g>
<g style="mix-blend-mode:hard-light">
<ellipse cx="22" cy="24" rx="7" ry="2" fill="url(#paint3_radial_78_2)"/>
</g>
<path d="M45.5376 9.61719C45.4912 9.183 45.2957 8.84493 44.951 8.60298C44.6096 8.36103 44.1655 8.24006 43.6186 8.24006C43.2341 8.24006 42.9044 8.29806 42.6293 8.41406C42.3542 8.53007 42.1437 8.6875 41.9979 8.88636C41.852 9.08523 41.7775 9.31226 41.7741 9.56747C41.7741 9.77959 41.8222 9.96354 41.9183 10.1193C42.0178 10.2751 42.152 10.4077 42.321 10.517C42.4901 10.6231 42.6773 10.7126 42.8828 10.7855C43.0883 10.8584 43.2955 10.9197 43.5043 10.9695L44.4588 11.2081C44.8433 11.2976 45.2128 11.4186 45.5675 11.571C45.9254 11.7235 46.2453 11.9157 46.527 12.1477C46.812 12.3797 47.0374 12.6598 47.2031 12.9879C47.3688 13.3161 47.4517 13.7005 47.4517 14.1413C47.4517 14.7379 47.2992 15.2633 46.9943 15.7173C46.6894 16.1681 46.2486 16.5211 45.6719 16.7763C45.0985 17.0282 44.4041 17.1541 43.5888 17.1541C42.7966 17.1541 42.1089 17.0315 41.5256 16.7862C40.9455 16.541 40.4915 16.183 40.1634 15.7124C39.8385 15.2417 39.6629 14.6683 39.6364 13.9922H41.451C41.4775 14.3468 41.5869 14.6418 41.7791 14.8771C41.9714 15.1125 42.2216 15.2881 42.5298 15.4041C42.8414 15.5201 43.1894 15.5781 43.5739 15.5781C43.9749 15.5781 44.3262 15.5185 44.6278 15.3991C44.9328 15.2765 45.1714 15.1075 45.3438 14.892C45.5161 14.6733 45.6039 14.4181 45.6072 14.1264C45.6039 13.8613 45.526 13.6425 45.3736 13.4702C45.2211 13.2945 45.0073 13.1487 44.7322 13.0327C44.4605 12.9134 44.1423 12.8073 43.7777 12.7145L42.6193 12.4162C41.7808 12.2008 41.1179 11.8743 40.6307 11.4368C40.1468 10.996 39.9048 10.411 39.9048 9.68182C39.9048 9.08191 40.0672 8.55658 40.392 8.10582C40.7202 7.65507 41.166 7.3054 41.7294 7.05682C42.2929 6.80492 42.9309 6.67898 43.6435 6.67898C44.366 6.67898 44.9991 6.80492 45.5426 7.05682C46.0895 7.3054 46.5187 7.65175 46.8303 8.09588C47.1418 8.53669 47.3026 9.0438 47.3125 9.61719H45.5376ZM50.2395 17H48.2708L51.8553 6.81818H54.1323L57.7218 17H55.753L53.0336 8.90625H52.954L50.2395 17ZM50.3042 13.0078H55.6735V14.4893H50.3042V13.0078ZM64.4322 9.61719C64.3858 9.183 64.1902 8.84493 63.8455 8.60298C63.5041 8.36103 63.06 8.24006 62.5131 8.24006C62.1287 8.24006 61.7989 8.29806 61.5238 8.41406C61.2487 8.53007 61.0382 8.6875 60.8924 8.88636C60.7466 9.08523 60.672 9.31226 60.6687 9.56747C60.6687 9.77959 60.7167 9.96354 60.8129 10.1193C60.9123 10.2751 61.0465 10.4077 61.2156 10.517C61.3846 10.6231 61.5719 10.7126 61.7773 10.7855C61.9828 10.8584 62.19 10.9197 62.3988 10.9695L63.3533 11.2081C63.7378 11.2976 64.1074 11.4186 64.462 11.571C64.82 11.7235 65.1398 11.9157 65.4215 12.1477C65.7066 12.3797 65.9319 12.6598 66.0977 12.9879C66.2634 13.3161 66.3462 13.7005 66.3462 14.1413C66.3462 14.7379 66.1938 15.2633 65.8888 15.7173C65.5839 16.1681 65.1431 16.5211 64.5664 16.7763C63.993 17.0282 63.2987 17.1541 62.4833 17.1541C61.6912 17.1541 61.0034 17.0315 60.4201 16.7862C59.8401 16.541 59.386 16.183 59.0579 15.7124C58.7331 15.2417 58.5574 14.6683 58.5309 13.9922H60.3455C60.372 14.3468 60.4814 14.6418 60.6737 14.8771C60.8659 15.1125 61.1161 15.2881 61.4244 15.4041C61.7359 15.5201 62.0839 15.5781 62.4684 15.5781C62.8694 15.5781 63.2208 15.5185 63.5224 15.3991C63.8273 15.2765 64.0659 15.1075 64.2383 14.892C64.4106 14.6733 64.4985 14.4181 64.5018 14.1264C64.4985 13.8613 64.4206 13.6425 64.2681 13.4702C64.1156 13.2945 63.9019 13.1487 63.6268 13.0327C63.355 12.9134 63.0368 12.8073 62.6722 12.7145L61.5138 12.4162C60.6753 12.2008 60.0124 11.8743 59.5252 11.4368C59.0413 10.996 58.7994 10.411 58.7994 9.68182C58.7994 9.08191 58.9618 8.55658 59.2866 8.10582C59.6147 7.65507 60.0605 7.3054 60.6239 7.05682C61.1874 6.80492 61.8254 6.67898 62.538 6.67898C63.2605 6.67898 63.8936 6.80492 64.4371 7.05682C64.984 7.3054 65.4132 7.65175 65.7248 8.09588C66.0363 8.53669 66.1971 9.0438 66.207 9.61719H64.4322ZM73.524 9.61719C73.4776 9.183 73.282 8.84493 72.9373 8.60298C72.5959 8.36103 72.1518 8.24006 71.6049 8.24006C71.2205 8.24006 70.8907 8.29806 70.6156 8.41406C70.3405 8.53007 70.13 8.6875 69.9842 8.88636C69.8384 9.08523 69.7638 9.31226 69.7605 9.56747C69.7605 9.77959 69.8085 9.96354 69.9047 10.1193C70.0041 10.2751 70.1383 10.4077 70.3074 10.517C70.4764 10.6231 70.6636 10.7126 70.8691 10.7855C71.0746 10.8584 71.2818 10.9197 71.4906 10.9695L72.4451 11.2081C72.8296 11.2976 73.1992 11.4186 73.5538 11.571C73.9118 11.7235 74.2316 11.9157 74.5133 12.1477C74.7984 12.3797 75.0237 12.6598 75.1895 12.9879C75.3552 13.3161 75.438 13.7005 75.438 14.1413C75.438 14.7379 75.2856 15.2633 74.9806 15.7173C74.6757 16.1681 74.2349 16.5211 73.6582 16.7763C73.0848 17.0282 72.3904 17.1541 71.5751 17.1541C70.783 17.1541 70.0952 17.0315 69.5119 16.7862C68.9319 16.541 68.4778 16.183 68.1497 15.7124C67.8249 15.2417 67.6492 14.6683 67.6227 13.9922H69.4373C69.4638 14.3468 69.5732 14.6418 69.7654 14.8771C69.9577 15.1125 70.2079 15.2881 70.5162 15.4041C70.8277 15.5201 71.1757 15.5781 71.5602 15.5781C71.9612 15.5781 72.3126 15.5185 72.6142 15.3991C72.9191 15.2765 73.1577 15.1075 73.3301 14.892C73.5024 14.6733 73.5903 14.4181 73.5936 14.1264C73.5903 13.8613 73.5124 13.6425 73.3599 13.4702C73.2074 13.2945 72.9937 13.1487 72.7186 13.0327C72.4468 12.9134 72.1286 12.8073 71.764 12.7145L70.6056 12.4162C69.7671 12.2008 69.1042 11.8743 68.617 11.4368C68.1331 10.996 67.8912 10.411 67.8912 9.68182C67.8912 9.08191 68.0536 8.55658 68.3784 8.10582C68.7065 7.65507 69.1523 7.3054 69.7157 7.05682C70.2792 6.80492 70.9172 6.67898 71.6298 6.67898C72.3523 6.67898 72.9854 6.80492 73.5289 7.05682C74.0758 7.3054 74.505 7.65175 74.8166 8.09588C75.1281 8.53669 75.2889 9.0438 75.2988 9.61719H73.524Z" fill="black"/>
<mask id="mask0_78_2" style="mask-type:alpha" maskUnits="userSpaceOnUse" x="10" y="0" width="24" height="24">
<path d="M24 0C25.1046 0 26 0.895431 26 2V6C26 7.10457 25.1046 8 24 8H20C18.9 8.00001 18 8.9 18 10V14C18 15.1 18.9 16 20 16H24C25.1046 16 26 16.8954 26 18V22C26 23.1046 25.1046 24 24 24H20C18.8954 24 18 23.1046 18 22V18C18 16.9 17.1 16 16 16H12C10.8954 16 10 15.1046 10 14V10C10 8.89543 10.8954 8 12 8H16C17.1 7.99999 18 7.1 18 6V2C18 0.895431 18.8954 0 20 0H24Z" fill="#009DFF"/>
<path d="M32 8C33.1046 8 34 8.89543 34 10V14C34 15.1046 33.1046 16 32 16H28C26.8954 16 26 15.1046 26 14V10C26 8.89543 26.8954 8 28 8H32Z" fill="#009DFF"/>
</mask>
<g mask="url(#mask0_78_2)">
<path d="M24 0C25.1046 0 26 0.895431 26 2V6C26 7.10457 25.1046 8 24 8H20C18.9 8.00001 18 8.9 18 10V14C18 15.1 18.9 16 20 16H24C25.1046 16 26 16.8954 26 18V22C26 23.1046 25.1046 24 24 24H20C18.8954 24 18 23.1046 18 22V18C18 16.9 17.1 16 16 16H12C10.8954 16 10 15.1046 10 14V10C10 8.89543 10.8954 8 12 8H16C17.1 7.99999 18 7.1 18 6V2C18 0.895431 18.8954 0 20 0H24Z" fill="#009DFF"/>
<path d="M24 0C25.1046 0 26 0.895431 26 2V6C26 7.10457 25.1046 8 24 8H20C18.9 8.00001 18 8.9 18 10V14C18 15.1 18.9 16 20 16H24C25.1046 16 26 16.8954 26 18V22C26 23.1046 25.1046 24 24 24H20C18.8954 24 18 23.1046 18 22V18C18 16.9 17.1 16 16 16H12C10.8954 16 10 15.1046 10 14V10C10 8.89543 10.8954 8 12 8H16C17.1 7.99999 18 7.1 18 6V2C18 0.895431 18.8954 0 20 0H24Z" fill="url(#paint4_radial_78_2)"/>
<path d="M32 8C33.1046 8 34 8.89543 34 10V14C34 15.1046 33.1046 16 32 16H28C26.8954 16 26 15.1046 26 14V10C26 8.89543 26.8954 8 28 8H32Z" fill="#009DFF"/>
<path d="M32 8C33.1046 8 34 8.89543 34 10V14C34 15.1046 33.1046 16 32 16H28C26.8954 16 26 15.1046 26 14V10C26 8.89543 26.8954 8 28 8H32Z" fill="url(#paint5_radial_78_2)"/>
<g style="mix-blend-mode:overlay" opacity="0.5">
<path d="M25 14C26.6569 14 28 15.3431 28 17V23C28 24.6569 26.6569 26 25 26H19C17.3431 26 16 24.6569 16 23V17C16 15.3431 17.3431 14 19 14H25Z" fill="url(#paint6_radial_78_2)"/>
</g>
<g style="mix-blend-mode:overlay" opacity="0.6">
<path d="M20.5 -2C24.0899 -2 27 0.910149 27 4.5V17.5C27 21.0899 24.0899 24 20.5 24H7.5C3.91015 24 1 21.0899 1 17.5V4.5C1 0.910149 3.91015 -2 7.5 -2H20.5Z" fill="url(#paint7_radial_78_2)"/>
</g>
<g style="mix-blend-mode:overlay" opacity="0.6">
<path d="M36.5 -2C40.0899 -2 43 0.910149 43 4.5V17.5C43 21.0899 40.0899 24 36.5 24H23.5C19.9101 24 17 21.0899 17 17.5V4.5C17 0.910149 19.9101 -2 23.5 -2H36.5Z" fill="url(#paint8_radial_78_2)"/>
</g>
<g style="mix-blend-mode:overlay" opacity="0.7">
<path d="M28.5 -10C32.0899 -10 35 -7.08985 35 -3.5V9.5C35 13.0899 32.0899 16 28.5 16H15.5C11.9101 16 9 13.0899 9 9.5V-3.5C9 -7.08985 11.9101 -10 15.5 -10H28.5Z" fill="url(#paint9_radial_78_2)"/>
</g>
<rect opacity="0.15" x="18" y="16" width="8" height="6" rx="2" fill="url(#paint10_linear_78_2)"/>
<rect opacity="0.12" x="26" y="8" width="8" height="6" rx="2" fill="url(#paint11_linear_78_2)"/>
<rect opacity="0.12" x="10" y="8" width="8" height="6" rx="2" fill="url(#paint12_linear_78_2)"/>
<rect opacity="0.1" x="18" width="8" height="6" rx="2" fill="url(#paint13_linear_78_2)"/>
<rect opacity="0.66" x="19" y="0.5" width="6" height="2" rx="1" fill="url(#paint14_linear_78_2)"/>
<rect opacity="0.66" x="19" y="16.5" width="6" height="2" rx="1" fill="url(#paint15_linear_78_2)"/>
<rect opacity="0.66" x="27" y="8.5" width="6" height="2" rx="1" fill="url(#paint16_linear_78_2)"/>
<rect opacity="0.66" x="11" y="8.5" width="6" height="2" rx="1" fill="url(#paint17_linear_78_2)"/>
<g style="mix-blend-mode:overlay" filter="url(#filter2_d_78_2)">
<mask id="mask1_78_2" style="mask-type:alpha" maskUnits="userSpaceOnUse" x="10" y="0" width="24" height="24">
<path d="M18 22V18C18 16.9 17.1 16 16 16V15.75C17.1606 15.75 18.1225 16.6393 18.2383 17.7705L18.25 18V22C18.25 22.9665 19.0335 23.75 20 23.75V24C18.8954 24 18 23.1046 18 22ZM24 23.75V24H20V23.75H24ZM25.75 22V18C25.75 17.0335 24.9665 16.25 24 16.25H20C18.7619 16.25 17.75 15.2381 17.75 14V10C17.75 8.76193 18.7619 7.75001 20 7.75V8C18.9 8.00001 18 8.9 18 10V14C18 15.1 18.9 16 20 16H24C25.1046 16 26 16.8954 26 18V22C26 23.1046 25.1046 24 24 24V23.75C24.9665 23.75 25.75 22.9665 25.75 22ZM16 15.75V16H12V15.75H16ZM32 15.75V16H28V15.75H32ZM33.75 14V10C33.75 9.0335 32.9665 8.25 32 8.25H28C27.0335 8.25 26.25 9.0335 26.25 10V14C26.25 14.9665 27.0335 15.75 28 15.75V16C26.8954 16 26 15.1046 26 14V10C26 8.89543 26.8954 8 28 8H32C33.1046 8 34 8.89543 34 10V14C34 15.1046 33.1046 16 32 16V15.75C32.9665 15.75 33.75 14.9665 33.75 14ZM24 7.75V8H20V7.75H24ZM25.75 6V2C25.75 1.0335 24.9665 0.25 24 0.25H20C19.0335 0.25 18.25 1.0335 18.25 2V6C18.25 7.16063 17.3607 8.12248 16.2295 8.23828L16 8.25H12C11.0335 8.25 10.25 9.0335 10.25 10V14C10.25 14.9665 11.0335 15.75 12 15.75V16C10.8954 16 10 15.1046 10 14V10C10 8.89543 10.8954 8 12 8H16C17.1 7.99999 18 7.1 18 6V2C18 0.895431 18.8954 0 20 0H24C25.1046 0 26 0.895431 26 2V6C26 7.10457 25.1046 8 24 8V7.75C24.9665 7.75 25.75 6.9665 25.75 6Z" fill="black"/>
</mask>
<g mask="url(#mask1_78_2)">
<g filter="url(#filter3_f_78_2)">
<circle cx="22" cy="20" r="6" fill="url(#paint18_linear_78_2)"/>
<circle cx="22" cy="4" r="6" fill="url(#paint19_linear_78_2)"/>
<circle cx="14" cy="12" r="6" fill="url(#paint20_linear_78_2)"/>
<circle cx="30" cy="12" r="6" fill="url(#paint21_linear_78_2)"/>
</g>
</g>
</g>
</g>
<defs>
<filter id="filter0_f_78_2" x="0" y="6" width="44" height="28" filterUnits="userSpaceOnUse" color-interpolation-filters="sRGB">
<feFlood flood-opacity="0" result="BackgroundImageFix"/>
<feBlend mode="normal" in="SourceGraphic" in2="BackgroundImageFix" result="shape"/>
<feGaussianBlur stdDeviation="5" result="effect1_foregroundBlur_78_2"/>
</filter>
<filter id="filter1_f_78_2" x="8" y="19" width="28" height="10" filterUnits="userSpaceOnUse" color-interpolation-filters="sRGB">
<feFlood flood-opacity="0" result="BackgroundImageFix"/>
<feBlend mode="normal" in="SourceGraphic" in2="BackgroundImageFix" result="shape"/>
<feGaussianBlur stdDeviation="1" result="effect1_foregroundBlur_78_2"/>
</filter>
<filter id="filter2_d_78_2" x="6" y="0" width="32" height="32" filterUnits="userSpaceOnUse" color-interpolation-filters="sRGB">
<feFlood flood-opacity="0" result="BackgroundImageFix"/>
<feColorMatrix in="SourceAlpha" type="matrix" values="0 0 0 0 0 0 0 0 0 0 0 0 0 0 0 0 0 0 127 0" result="hardAlpha"/>
<feOffset dy="4"/>
<feGaussianBlur stdDeviation="2"/>
<feComposite in2="hardAlpha" operator="out"/>
<feColorMatrix type="matrix" values="0 0 0 0 0 0 0 0 0 0 0 0 0 0 0 0 0 0 0.25 0"/>
<feBlend mode="normal" in2="BackgroundImageFix" result="effect1_dropShadow_78_2"/>
<feBlend mode="normal" in="SourceGraphic" in2="effect1_dropShadow_78_2" result="shape"/>
</filter>
<filter id="filter3_f_78_2" x="6" y="-4" width="32" height="32" filterUnits="userSpaceOnUse" color-interpolation-filters="sRGB">
<feFlood flood-opacity="0" result="BackgroundImageFix"/>
<feBlend mode="normal" in="SourceGraphic" in2="BackgroundImageFix" result="shape"/>
<feGaussianBlur stdDeviation="1" result="effect1_foregroundBlur_78_2"/>
</filter>
<linearGradient id="paint0_linear_78_2" x1="22" y1="23.7341" x2="22" y2="14.8571" gradientUnits="userSpaceOnUse">
<stop stop-color="#009DFF"/>
<stop offset="1" stop-color="#009DFF"/>
</linearGradient>
<linearGradient id="paint1_linear_78_2" x1="22" y1="23.7341" x2="22" y2="14.8571" gradientUnits="userSpaceOnUse">
<stop stop-color="#009DFF"/>
<stop offset="1" stop-color="#009DFF"/>
</linearGradient>
<radialGradient id="paint2_radial_78_2" cx="0" cy="0" r="1" gradientUnits="userSpaceOnUse" gradientTransform="translate(22 24) scale(13 4.01429)">
<stop stop-color="#009DFF"/>
<stop offset="0.485577" stop-color="#009DFF" stop-opacity="0.33"/>
<stop offset="1" stop-color="#009DFF" stop-opacity="0"/>
</radialGradient>
<radialGradient id="paint3_radial_78_2" cx="0" cy="0" r="1" gradientUnits="userSpaceOnUse" gradientTransform="translate(22 24) scale(7.58333 1.80766)">
<stop stop-color="#82F7FF"/>
<stop offset="0.75" stop-color="#82F7FF" stop-opacity="0"/>
</radialGradient>
<radialGradient id="paint4_radial_78_2" cx="0" cy="0" r="1" gradientUnits="userSpaceOnUse" gradientTransform="translate(22 23) rotate(-90) scale(23)">
<stop stop-color="#62E2FF"/>
<stop offset="0.466346" stop-color="#009DFF"/>
<stop offset="1" stop-color="#0068DF"/>
</radialGradient>
<radialGradient id="paint5_radial_78_2" cx="0" cy="0" r="1" gradientUnits="userSpaceOnUse" gradientTransform="translate(22 23) rotate(-90) scale(23)">
<stop stop-color="#62E2FF"/>
<stop offset="0.466346" stop-color="#009DFF"/>
<stop offset="1" stop-color="#0068DF"/>
</radialGradient>
<radialGradient id="paint6_radial_78_2" cx="0" cy="0" r="1" gradientUnits="userSpaceOnUse" gradientTransform="translate(22 23.5) rotate(-90) scale(7)">
<stop stop-color="#62E2FF"/>
<stop offset="1" stop-color="#62E2FF" stop-opacity="0"/>
</radialGradient>
<radialGradient id="paint7_radial_78_2" cx="0" cy="0" r="1" gradientUnits="userSpaceOnUse" gradientTransform="translate(14 15.5) rotate(-90) scale(7)">
<stop stop-color="#62E2FF"/>
<stop offset="1" stop-color="#62E2FF" stop-opacity="0"/>
</radialGradient>
<radialGradient id="paint8_radial_78_2" cx="0" cy="0" r="1" gradientUnits="userSpaceOnUse" gradientTransform="translate(30 15.5) rotate(-90) scale(7)">
<stop stop-color="#62E2FF"/>
<stop offset="1" stop-color="#62E2FF" stop-opacity="0"/>
</radialGradient>
<radialGradient id="paint9_radial_78_2" cx="0" cy="0" r="1" gradientUnits="userSpaceOnUse" gradientTransform="translate(22 7.5) rotate(-90) scale(7)">
<stop stop-color="#62E2FF"/>
<stop offset="1" stop-color="#62E2FF" stop-opacity="0"/>
</radialGradient>
<linearGradient id="paint10_linear_78_2" x1="22" y1="18" x2="22" y2="22" gradientUnits="userSpaceOnUse">
<stop stop-color="white" stop-opacity="0"/>
<stop offset="1" stop-color="white"/>
</linearGradient>
<linearGradient id="paint11_linear_78_2" x1="30" y1="10" x2="30" y2="14" gradientUnits="userSpaceOnUse">
<stop stop-color="white" stop-opacity="0"/>
<stop offset="1" stop-color="white"/>
</linearGradient>
<linearGradient id="paint12_linear_78_2" x1="14" y1="10" x2="14" y2="14" gradientUnits="userSpaceOnUse">
<stop stop-color="white" stop-opacity="0"/>
<stop offset="1" stop-color="white"/>
</linearGradient>
<linearGradient id="paint13_linear_78_2" x1="22" y1="2" x2="22" y2="6" gradientUnits="userSpaceOnUse">
<stop stop-color="white" stop-opacity="0"/>
<stop offset="1" stop-color="white"/>
</linearGradient>
<linearGradient id="paint14_linear_78_2" x1="22" y1="0.5" x2="22" y2="2.5" gradientUnits="userSpaceOnUse">
<stop stop-color="white"/>
<stop offset="1" stop-color="white" stop-opacity="0"/>
</linearGradient>
<linearGradient id="paint15_linear_78_2" x1="22" y1="16.5" x2="22" y2="18.5" gradientUnits="userSpaceOnUse">
<stop stop-color="white"/>
<stop offset="1" stop-color="white" stop-opacity="0"/>
</linearGradient>
<linearGradient id="paint16_linear_78_2" x1="30" y1="8.5" x2="30" y2="10.5" gradientUnits="userSpaceOnUse">
<stop stop-color="white"/>
<stop offset="1" stop-color="white" stop-opacity="0"/>
</linearGradient>
<linearGradient id="paint17_linear_78_2" x1="14" y1="8.5" x2="14" y2="10.5" gradientUnits="userSpaceOnUse">
<stop stop-color="white"/>
<stop offset="1" stop-color="white" stop-opacity="0"/>
</linearGradient>
<linearGradient id="paint18_linear_78_2" x1="22" y1="14" x2="22" y2="26" gradientUnits="userSpaceOnUse">
<stop stop-color="#282828"/>
<stop offset="1" stop-color="white"/>
</linearGradient>
<linearGradient id="paint19_linear_78_2" x1="22" y1="-2" x2="22" y2="10" gradientUnits="userSpaceOnUse">
<stop stop-color="#373737"/>
<stop offset="1" stop-color="white"/>
</linearGradient>
<linearGradient id="paint20_linear_78_2" x1="14" y1="6" x2="14" y2="18" gradientUnits="userSpaceOnUse">
<stop stop-color="#474747"/>
<stop offset="1" stop-color="white"/>
</linearGradient>
<linearGradient id="paint21_linear_78_2" x1="30" y1="6" x2="30" y2="18" gradientUnits="userSpaceOnUse">
<stop stop-color="#474747"/>
<stop offset="1" stop-color="white"/>
</linearGradient>
</defs>
</svg>
